<mxfile host="app.diagrams.net" agent="Mozilla/5.0 (Windows NT 10.0; Win64; x64) AppleWebKit/537.36 (KHTML, like Gecko) Chrome/133.0.0.0 Safari/537.36" version="26.0.14">
  <diagram name="Page-1" id="13e1069c-82ec-6db2-03f1-153e76fe0fe0">
    <mxGraphModel dx="1079" dy="405" grid="1" gridSize="10" guides="1" tooltips="1" connect="1" arrows="1" fold="1" page="1" pageScale="1" pageWidth="1100" pageHeight="850" background="none" math="0" shadow="0">
      <root>
        <mxCell id="0" />
        <mxCell id="1" parent="0" />
        <mxCell id="8Dy1Gb7IizQc3lTLjKq3-14" value="return" style="html=1;verticalAlign=bottom;endArrow=open;dashed=1;endSize=8;labelBackgroundColor=none;fontFamily=Verdana;fontSize=12;edgeStyle=elbowEdgeStyle;elbow=vertical;exitX=-0.18;exitY=1.032;exitDx=0;exitDy=0;exitPerimeter=0;entryX=1.076;entryY=0.452;entryDx=0;entryDy=0;entryPerimeter=0;" edge="1" source="8Dy1Gb7IizQc3lTLjKq3-13" parent="1" target="lxiRtH4BqM2ATYFy1Glm-7">
          <mxGeometry x="-0.6089" y="-2" relative="1" as="geometry">
            <mxPoint x="510" y="241" as="targetPoint" />
            <Array as="points" />
            <mxPoint x="755" y="230" as="sourcePoint" />
            <mxPoint as="offset" />
          </mxGeometry>
        </mxCell>
        <mxCell id="8Dy1Gb7IizQc3lTLjKq3-16" value="&lt;font face=&quot;Verdana&quot; style=&quot;font-size: 12px;&quot;&gt;return&lt;/font&gt;" style="edgeLabel;html=1;align=center;verticalAlign=middle;resizable=0;points=[];" vertex="1" connectable="0" parent="8Dy1Gb7IizQc3lTLjKq3-14">
          <mxGeometry x="0.4698" relative="1" as="geometry">
            <mxPoint x="13" y="-12" as="offset" />
          </mxGeometry>
        </mxCell>
        <mxCell id="7baba1c4bc27f4b0-6" value="Merge" style="shape=umlLifeline;perimeter=lifelinePerimeter;whiteSpace=wrap;html=1;container=1;collapsible=0;recursiveResize=0;outlineConnect=0;rounded=1;shadow=0;comic=0;labelBackgroundColor=none;strokeWidth=1;fontFamily=Verdana;fontSize=12;align=center;" parent="1" vertex="1">
          <mxGeometry x="260" y="80" width="100" height="270" as="geometry" />
        </mxCell>
        <mxCell id="lxiRtH4BqM2ATYFy1Glm-4" value="" style="html=1;points=[];perimeter=orthogonalPerimeter;rounded=0;shadow=0;comic=0;labelBackgroundColor=none;strokeWidth=1;fontFamily=Verdana;fontSize=12;align=center;" parent="7baba1c4bc27f4b0-6" vertex="1">
          <mxGeometry x="45" y="90" width="10" height="180" as="geometry" />
        </mxCell>
        <mxCell id="7baba1c4bc27f4b0-7" value="Partition&lt;div&gt;Merge&lt;/div&gt;" style="shape=umlLifeline;perimeter=lifelinePerimeter;whiteSpace=wrap;html=1;container=1;collapsible=0;recursiveResize=0;outlineConnect=0;rounded=1;shadow=0;comic=0;labelBackgroundColor=none;strokeWidth=1;fontFamily=Verdana;fontSize=12;align=center;" parent="1" vertex="1">
          <mxGeometry x="400" y="80" width="100" height="250" as="geometry" />
        </mxCell>
        <mxCell id="lxiRtH4BqM2ATYFy1Glm-7" value="" style="html=1;points=[];perimeter=orthogonalPerimeter;rounded=0;shadow=0;comic=0;labelBackgroundColor=none;strokeWidth=1;fontFamily=Verdana;fontSize=12;align=center;" parent="7baba1c4bc27f4b0-7" vertex="1">
          <mxGeometry x="45" y="90" width="10" height="160" as="geometry" />
        </mxCell>
        <mxCell id="8Dy1Gb7IizQc3lTLjKq3-8" value="" style="html=1;verticalAlign=bottom;endArrow=block;labelBackgroundColor=none;fontFamily=Verdana;fontSize=12;edgeStyle=orthogonalEdgeStyle;elbow=vertical;entryX=1.076;entryY=0.675;entryDx=0;entryDy=0;entryPerimeter=0;" edge="1" parent="7baba1c4bc27f4b0-7">
          <mxGeometry x="-0.0904" y="20" relative="1" as="geometry">
            <mxPoint x="54.99999999999997" y="90" as="sourcePoint" />
            <mxPoint x="54.99999999999997" y="109" as="targetPoint" />
            <Array as="points">
              <mxPoint x="53.99999999999997" y="90" />
              <mxPoint x="88.99999999999997" y="90" />
              <mxPoint x="88.99999999999997" y="109" />
            </Array>
            <mxPoint as="offset" />
          </mxGeometry>
        </mxCell>
        <mxCell id="8Dy1Gb7IizQc3lTLjKq3-9" value="&lt;font style=&quot;font-size: 12px;&quot;&gt;Fill hashmap&lt;/font&gt;" style="edgeLabel;html=1;align=center;verticalAlign=middle;resizable=0;points=[];" vertex="1" connectable="0" parent="8Dy1Gb7IizQc3lTLjKq3-8">
          <mxGeometry x="-0.7069" y="-1" relative="1" as="geometry">
            <mxPoint x="41" y="-1" as="offset" />
          </mxGeometry>
        </mxCell>
        <mxCell id="8Dy1Gb7IizQc3lTLjKq3-18" value="" style="html=1;verticalAlign=bottom;endArrow=block;labelBackgroundColor=none;fontFamily=Verdana;fontSize=12;edgeStyle=orthogonalEdgeStyle;elbow=vertical;entryX=1.076;entryY=0.675;entryDx=0;entryDy=0;entryPerimeter=0;" edge="1" parent="7baba1c4bc27f4b0-7">
          <mxGeometry x="-0.0904" y="20" relative="1" as="geometry">
            <mxPoint x="55.96999999999997" y="180" as="sourcePoint" />
            <mxPoint x="55.96999999999997" y="199" as="targetPoint" />
            <Array as="points">
              <mxPoint x="54.96999999999997" y="180" />
              <mxPoint x="89.96999999999997" y="180" />
              <mxPoint x="89.96999999999997" y="199" />
            </Array>
            <mxPoint as="offset" />
          </mxGeometry>
        </mxCell>
        <mxCell id="8Dy1Gb7IizQc3lTLjKq3-19" value="&lt;font style=&quot;font-size: 12px;&quot;&gt;Fill hashmap&lt;/font&gt;" style="edgeLabel;html=1;align=center;verticalAlign=middle;resizable=0;points=[];" vertex="1" connectable="0" parent="8Dy1Gb7IizQc3lTLjKq3-18">
          <mxGeometry x="-0.7069" y="-1" relative="1" as="geometry">
            <mxPoint x="41" y="-1" as="offset" />
          </mxGeometry>
        </mxCell>
        <mxCell id="7baba1c4bc27f4b0-8" value="Main" style="shape=umlLifeline;perimeter=lifelinePerimeter;whiteSpace=wrap;html=1;container=1;collapsible=0;recursiveResize=0;outlineConnect=0;rounded=1;shadow=0;comic=0;labelBackgroundColor=none;strokeWidth=1;fontFamily=Verdana;fontSize=12;align=center;" parent="1" vertex="1">
          <mxGeometry x="100" y="80" width="103" height="270" as="geometry" />
        </mxCell>
        <mxCell id="7baba1c4bc27f4b0-9" value="" style="html=1;points=[];perimeter=orthogonalPerimeter;rounded=0;shadow=0;comic=0;labelBackgroundColor=none;strokeWidth=1;fontFamily=Verdana;fontSize=12;align=center;" parent="7baba1c4bc27f4b0-8" vertex="1">
          <mxGeometry x="46.5" y="69.25" width="10" height="200.75" as="geometry" />
        </mxCell>
        <mxCell id="8Dy1Gb7IizQc3lTLjKq3-31" value="" style="endArrow=none;dashed=1;html=1;dashPattern=1 3;strokeWidth=4;rounded=0;curved=0;" edge="1" parent="7baba1c4bc27f4b0-8">
          <mxGeometry width="50" height="50" relative="1" as="geometry">
            <mxPoint x="51.5" y="280" as="sourcePoint" />
            <mxPoint x="51.5" y="320" as="targetPoint" />
          </mxGeometry>
        </mxCell>
        <mxCell id="8Dy1Gb7IizQc3lTLjKq3-32" value="" style="html=1;points=[];perimeter=orthogonalPerimeter;rounded=0;shadow=0;comic=0;labelBackgroundColor=none;strokeWidth=1;fontFamily=Verdana;fontSize=12;align=center;" vertex="1" parent="7baba1c4bc27f4b0-8">
          <mxGeometry x="46.5" y="330" width="10" height="40" as="geometry" />
        </mxCell>
        <mxCell id="7baba1c4bc27f4b0-23" value="dispatch" style="html=1;verticalAlign=bottom;endArrow=block;labelBackgroundColor=none;fontFamily=Verdana;fontSize=12;entryX=-0.152;entryY=0.009;entryDx=0;entryDy=0;entryPerimeter=0;" parent="1" source="7baba1c4bc27f4b0-9" target="lxiRtH4BqM2ATYFy1Glm-4" edge="1">
          <mxGeometry relative="1" as="geometry">
            <mxPoint x="155" y="350.0000000000002" as="sourcePoint" />
            <mxPoint x="585" y="350.0000000000002" as="targetPoint" />
          </mxGeometry>
        </mxCell>
        <mxCell id="lxiRtH4BqM2ATYFy1Glm-5" value="dispatch" style="html=1;verticalAlign=bottom;endArrow=block;labelBackgroundColor=none;fontFamily=Verdana;fontSize=12;entryX=-0.083;entryY=0.006;entryDx=0;entryDy=0;entryPerimeter=0;" parent="1" source="lxiRtH4BqM2ATYFy1Glm-4" target="lxiRtH4BqM2ATYFy1Glm-7" edge="1">
          <mxGeometry x="-0.0028" relative="1" as="geometry">
            <mxPoint x="50" y="490" as="sourcePoint" />
            <mxPoint x="758" y="490" as="targetPoint" />
            <mxPoint as="offset" />
          </mxGeometry>
        </mxCell>
        <mxCell id="lxiRtH4BqM2ATYFy1Glm-10" value="return" style="html=1;verticalAlign=bottom;endArrow=open;dashed=1;endSize=8;labelBackgroundColor=none;fontFamily=Verdana;fontSize=12;edgeStyle=elbowEdgeStyle;elbow=vertical;exitX=0.004;exitY=1;exitDx=0;exitDy=0;exitPerimeter=0;" parent="1" source="lxiRtH4BqM2ATYFy1Glm-7" target="lxiRtH4BqM2ATYFy1Glm-4" edge="1">
          <mxGeometry x="0.0707" relative="1" as="geometry">
            <mxPoint x="-20" y="390" as="targetPoint" />
            <Array as="points" />
            <mxPoint x="550" y="390" as="sourcePoint" />
            <mxPoint as="offset" />
          </mxGeometry>
        </mxCell>
        <mxCell id="8Dy1Gb7IizQc3lTLjKq3-5" value="" style="endArrow=none;dashed=1;html=1;dashPattern=1 3;strokeWidth=5;rounded=0;curved=0;" edge="1" parent="1">
          <mxGeometry width="50" height="50" relative="1" as="geometry">
            <mxPoint x="510" y="100" as="sourcePoint" />
            <mxPoint x="560" y="100" as="targetPoint" />
          </mxGeometry>
        </mxCell>
        <mxCell id="8Dy1Gb7IizQc3lTLjKq3-6" value="SubMerge" style="shape=umlLifeline;perimeter=lifelinePerimeter;whiteSpace=wrap;html=1;container=1;collapsible=0;recursiveResize=0;outlineConnect=0;rounded=1;shadow=0;comic=0;labelBackgroundColor=none;strokeWidth=1;fontFamily=Verdana;fontSize=12;align=center;" vertex="1" parent="1">
          <mxGeometry x="590" y="80" width="100" height="160" as="geometry" />
        </mxCell>
        <mxCell id="8Dy1Gb7IizQc3lTLjKq3-7" value="" style="html=1;points=[];perimeter=orthogonalPerimeter;rounded=0;shadow=0;comic=0;labelBackgroundColor=none;strokeWidth=1;fontFamily=Verdana;fontSize=12;align=center;" vertex="1" parent="8Dy1Gb7IizQc3lTLjKq3-6">
          <mxGeometry x="45" y="130" width="10" height="30" as="geometry" />
        </mxCell>
        <mxCell id="8Dy1Gb7IizQc3lTLjKq3-10" value="dispatch" style="html=1;verticalAlign=bottom;endArrow=block;labelBackgroundColor=none;fontFamily=Verdana;fontSize=12;exitX=1.131;exitY=0.255;exitDx=0;exitDy=0;exitPerimeter=0;" edge="1" parent="1" source="lxiRtH4BqM2ATYFy1Glm-7">
          <mxGeometry relative="1" as="geometry">
            <mxPoint x="460" y="210" as="sourcePoint" />
            <mxPoint x="634" y="210" as="targetPoint" />
          </mxGeometry>
        </mxCell>
        <mxCell id="8Dy1Gb7IizQc3lTLjKq3-12" value="SubMerge" style="shape=umlLifeline;perimeter=lifelinePerimeter;whiteSpace=wrap;html=1;container=1;collapsible=0;recursiveResize=0;outlineConnect=0;rounded=1;shadow=0;comic=0;labelBackgroundColor=none;strokeWidth=1;fontFamily=Verdana;fontSize=12;align=center;" vertex="1" parent="1">
          <mxGeometry x="715" y="80" width="100" height="160" as="geometry" />
        </mxCell>
        <mxCell id="8Dy1Gb7IizQc3lTLjKq3-13" value="" style="html=1;points=[];perimeter=orthogonalPerimeter;rounded=0;shadow=0;comic=0;labelBackgroundColor=none;strokeWidth=1;fontFamily=Verdana;fontSize=12;align=center;" vertex="1" parent="8Dy1Gb7IizQc3lTLjKq3-12">
          <mxGeometry x="45" y="130" width="10" height="30" as="geometry" />
        </mxCell>
        <mxCell id="8Dy1Gb7IizQc3lTLjKq3-15" value="dispatch" style="html=1;verticalAlign=bottom;endArrow=block;labelBackgroundColor=none;fontFamily=Verdana;fontSize=12;exitX=1.021;exitY=0.252;exitDx=0;exitDy=0;exitPerimeter=0;" edge="1" parent="1" source="lxiRtH4BqM2ATYFy1Glm-7">
          <mxGeometry x="0.6054" relative="1" as="geometry">
            <mxPoint x="460" y="210" as="sourcePoint" />
            <mxPoint x="759" y="210" as="targetPoint" />
            <mxPoint as="offset" />
          </mxGeometry>
        </mxCell>
        <mxCell id="8Dy1Gb7IizQc3lTLjKq3-17" value="" style="endArrow=none;dashed=1;html=1;dashPattern=1 3;strokeWidth=5;rounded=0;curved=0;" edge="1" parent="1">
          <mxGeometry width="50" height="50" relative="1" as="geometry">
            <mxPoint x="830" y="100" as="sourcePoint" />
            <mxPoint x="880" y="100" as="targetPoint" />
          </mxGeometry>
        </mxCell>
        <mxCell id="8Dy1Gb7IizQc3lTLjKq3-20" value="SubMerge" style="shape=umlLifeline;perimeter=lifelinePerimeter;whiteSpace=wrap;html=1;container=1;collapsible=0;recursiveResize=0;outlineConnect=0;rounded=1;shadow=0;comic=0;labelBackgroundColor=none;strokeWidth=1;fontFamily=Verdana;fontSize=12;align=center;" vertex="1" parent="1">
          <mxGeometry x="910" y="80" width="100" height="240" as="geometry" />
        </mxCell>
        <mxCell id="8Dy1Gb7IizQc3lTLjKq3-21" value="" style="html=1;points=[];perimeter=orthogonalPerimeter;rounded=0;shadow=0;comic=0;labelBackgroundColor=none;strokeWidth=1;fontFamily=Verdana;fontSize=12;align=center;" vertex="1" parent="8Dy1Gb7IizQc3lTLjKq3-20">
          <mxGeometry x="45" y="209.25" width="10" height="30.75" as="geometry" />
        </mxCell>
        <mxCell id="8Dy1Gb7IizQc3lTLjKq3-22" value="SubMerge" style="shape=umlLifeline;perimeter=lifelinePerimeter;whiteSpace=wrap;html=1;container=1;collapsible=0;recursiveResize=0;outlineConnect=0;rounded=1;shadow=0;comic=0;labelBackgroundColor=none;strokeWidth=1;fontFamily=Verdana;fontSize=12;align=center;" vertex="1" parent="1">
          <mxGeometry x="1035" y="80" width="100" height="220" as="geometry" />
        </mxCell>
        <mxCell id="8Dy1Gb7IizQc3lTLjKq3-24" value="" style="endArrow=none;dashed=1;html=1;dashPattern=1 3;strokeWidth=5;rounded=0;curved=0;" edge="1" parent="1">
          <mxGeometry width="50" height="50" relative="1" as="geometry">
            <mxPoint x="1150" y="100" as="sourcePoint" />
            <mxPoint x="1200" y="100" as="targetPoint" />
          </mxGeometry>
        </mxCell>
        <mxCell id="8Dy1Gb7IizQc3lTLjKq3-25" value="dispatch" style="html=1;verticalAlign=bottom;endArrow=block;labelBackgroundColor=none;fontFamily=Verdana;fontSize=12;exitX=1.067;exitY=0.749;exitDx=0;exitDy=0;exitPerimeter=0;entryX=-0.013;entryY=0.003;entryDx=0;entryDy=0;entryPerimeter=0;" edge="1" parent="1" source="lxiRtH4BqM2ATYFy1Glm-7" target="8Dy1Gb7IizQc3lTLjKq3-21">
          <mxGeometry x="0.0632" y="1" relative="1" as="geometry">
            <mxPoint x="465" y="290" as="sourcePoint" />
            <mxPoint x="934" y="280" as="targetPoint" />
            <mxPoint as="offset" />
          </mxGeometry>
        </mxCell>
        <mxCell id="8Dy1Gb7IizQc3lTLjKq3-23" value="" style="html=1;points=[];perimeter=orthogonalPerimeter;rounded=0;shadow=0;comic=0;labelBackgroundColor=none;strokeWidth=1;fontFamily=Verdana;fontSize=12;align=center;" vertex="1" parent="1">
          <mxGeometry x="1080" y="290" width="10" height="30" as="geometry" />
        </mxCell>
        <mxCell id="8Dy1Gb7IizQc3lTLjKq3-26" value="dispatch" style="html=1;verticalAlign=bottom;endArrow=block;labelBackgroundColor=none;fontFamily=Verdana;fontSize=12;entryX=-0.286;entryY=-0.01;entryDx=0;entryDy=0;entryPerimeter=0;" edge="1" parent="1" target="8Dy1Gb7IizQc3lTLjKq3-23">
          <mxGeometry x="0.8431" relative="1" as="geometry">
            <mxPoint x="456" y="290" as="sourcePoint" />
            <mxPoint x="968" y="320" as="targetPoint" />
            <mxPoint as="offset" />
          </mxGeometry>
        </mxCell>
        <mxCell id="8Dy1Gb7IizQc3lTLjKq3-27" value="return" style="html=1;verticalAlign=bottom;endArrow=open;dashed=1;endSize=8;labelBackgroundColor=none;fontFamily=Verdana;fontSize=12;edgeStyle=elbowEdgeStyle;elbow=vertical;exitX=-0.066;exitY=1.005;exitDx=0;exitDy=0;exitPerimeter=0;entryX=1.12;entryY=0.943;entryDx=0;entryDy=0;entryPerimeter=0;" edge="1" parent="1" source="8Dy1Gb7IizQc3lTLjKq3-23" target="lxiRtH4BqM2ATYFy1Glm-7">
          <mxGeometry x="-0.8016" relative="1" as="geometry">
            <mxPoint x="470" y="320" as="targetPoint" />
            <Array as="points" />
            <mxPoint x="1060.0000000000002" y="317.6" as="sourcePoint" />
            <mxPoint as="offset" />
          </mxGeometry>
        </mxCell>
        <mxCell id="8Dy1Gb7IizQc3lTLjKq3-28" value="&lt;font face=&quot;Verdana&quot; style=&quot;font-size: 12px;&quot;&gt;return&lt;/font&gt;" style="edgeLabel;html=1;align=center;verticalAlign=middle;resizable=0;points=[];" vertex="1" connectable="0" parent="8Dy1Gb7IizQc3lTLjKq3-27">
          <mxGeometry x="0.4698" relative="1" as="geometry">
            <mxPoint x="97" y="-10" as="offset" />
          </mxGeometry>
        </mxCell>
        <mxCell id="8Dy1Gb7IizQc3lTLjKq3-29" value="" style="endArrow=none;dashed=1;html=1;dashPattern=1 3;strokeWidth=4;rounded=0;curved=0;" edge="1" parent="1">
          <mxGeometry width="50" height="50" relative="1" as="geometry">
            <mxPoint x="310" y="360" as="sourcePoint" />
            <mxPoint x="310" y="400" as="targetPoint" />
          </mxGeometry>
        </mxCell>
        <mxCell id="8Dy1Gb7IizQc3lTLjKq3-30" value="" style="html=1;points=[];perimeter=orthogonalPerimeter;rounded=0;shadow=0;comic=0;labelBackgroundColor=none;strokeWidth=1;fontFamily=Verdana;fontSize=12;align=center;" vertex="1" parent="1">
          <mxGeometry x="305" y="410" width="10" height="40" as="geometry" />
        </mxCell>
        <mxCell id="lxiRtH4BqM2ATYFy1Glm-35" value="return" style="html=1;verticalAlign=bottom;endArrow=open;dashed=1;endSize=8;labelBackgroundColor=none;fontFamily=Verdana;fontSize=12;edgeStyle=elbowEdgeStyle;elbow=vertical;exitX=-0.067;exitY=1.007;exitDx=0;exitDy=0;exitPerimeter=0;entryX=1.183;entryY=0.989;entryDx=0;entryDy=0;entryPerimeter=0;" parent="1" source="8Dy1Gb7IizQc3lTLjKq3-30" target="8Dy1Gb7IizQc3lTLjKq3-32" edge="1">
          <mxGeometry x="0.0707" relative="1" as="geometry">
            <mxPoint x="170" y="450" as="targetPoint" />
            <Array as="points">
              <mxPoint x="230" y="450" />
            </Array>
            <mxPoint x="292.92999999999995" y="426.91999999999996" as="sourcePoint" />
            <mxPoint as="offset" />
          </mxGeometry>
        </mxCell>
      </root>
    </mxGraphModel>
  </diagram>
</mxfile>
